<?xml version="1.0" encoding="utf-8"?>
<svg xmlns="http://www.w3.org/2000/svg" width="801.95277" height="537" viewBox="0 0 28 28" role="img" artist="Katerina Limpitsouni" source="https://undraw.co/">
  <path d="M 7.253 27.998 C 6.603 27.996 5.97 27.778 5.446 27.375 C 4.355 26.571 3.899 25.117 4.327 23.8 L 5.843 18.951 C 6.066 18.243 5.823 17.467 5.243 17.029 L 1.274 14.032 C -0.643 12.585 -0.333 9.524 1.831 8.522 C 2.225 8.34 2.651 8.246 3.083 8.246 L 7.988 8.246 C 8.705 8.248 9.341 7.768 9.56 7.058 L 11.076 2.209 C 11.809 -0.132 14.705 -0.772 16.29 1.058 C 16.578 1.391 16.797 1.783 16.929 2.209 L 18.445 7.058 C 18.666 7.768 19.301 8.248 20.017 8.246 L 24.923 8.246 C 27.292 8.246 28.773 10.913 27.588 13.044 C 27.373 13.432 27.081 13.769 26.733 14.032 L 22.763 17.029 C 22.182 17.467 21.94 18.243 22.162 18.951 L 23.678 23.8 C 24.411 26.141 22.429 28.428 20.111 27.916 C 19.689 27.823 19.292 27.64 18.943 27.375 L 14.975 24.38 C 14.397 23.939 13.609 23.939 13.03 24.38 L 9.062 27.375 C 8.539 27.778 7.905 27.996 7.253 27.998 Z M 14.002 22.569 C 14.653 22.57 15.286 22.784 15.812 23.183 L 19.779 26.179 C 20.809 26.957 22.262 26.286 22.397 24.969 C 22.421 24.728 22.396 24.486 22.324 24.258 L 20.809 19.408 C 20.394 18.091 20.846 16.646 21.927 15.832 L 25.895 12.835 C 26.925 12.059 26.758 10.413 25.596 9.874 C 25.383 9.777 25.155 9.726 24.923 9.726 L 20.017 9.726 C 18.684 9.729 17.502 8.836 17.092 7.515 L 15.576 2.667 C 15.183 1.409 13.626 1.065 12.773 2.048 C 12.618 2.226 12.501 2.437 12.43 2.667 L 10.913 7.515 C 10.505 8.836 9.322 9.729 7.988 9.726 L 3.083 9.726 C 1.809 9.726 1.014 11.158 1.65 12.304 C 1.766 12.513 1.923 12.694 2.11 12.835 L 6.079 15.832 C 7.159 16.646 7.611 18.091 7.197 19.408 L 5.681 24.258 C 5.287 25.516 6.353 26.745 7.598 26.47 C 7.824 26.42 8.038 26.32 8.226 26.179 L 12.194 23.183 C 12.72 22.784 13.353 22.57 14.002 22.569 Z" fill="#3f3d56" style=""/>
</svg>