<?xml version="1.0" encoding="utf-8"?>
<svg xmlns="http://www.w3.org/2000/svg" width="801.95277" height="537" viewBox="0 0 28 28" role="img" artist="Katerina Limpitsouni" source="https://undraw.co/">
  <path d="M 20.914 27.999 C 20.308 27.996 19.72 27.794 19.233 27.42 L 15.185 24.361 C 14.495 23.837 13.561 23.837 12.872 24.361 L 8.823 27.42 C 7.044 28.766 4.532 27.602 4.302 25.326 C 4.259 24.912 4.302 24.493 4.425 24.098 L 5.972 19.147 C 6.237 18.303 5.948 17.378 5.257 16.858 L 1.208 13.798 C -0.572 12.453 -0.284 9.608 1.726 8.677 C 2.091 8.508 2.488 8.42 2.887 8.42 L 7.892 8.42 C 8.746 8.422 9.502 7.85 9.764 7.005 L 11.311 2.055 C 11.99 -0.122 14.68 -0.717 16.151 0.984 C 16.42 1.294 16.622 1.659 16.746 2.055 L 18.293 7.005 C 18.555 7.85 19.311 8.422 20.164 8.42 L 25.168 8.42 C 27.367 8.42 28.743 10.897 27.643 12.879 C 27.443 13.239 27.172 13.553 26.847 13.798 L 22.8 16.858 C 22.108 17.378 21.82 18.303 22.084 19.147 L 23.632 24.098 C 24.028 25.322 23.605 26.672 22.593 27.42 C 22.105 27.794 21.517 27.996 20.914 27.999 Z" fill="#F09C49" style=""/>
</svg>